<svg xmlns="http://www.w3.org/2000/svg" viewBox="0 0 64 64" fill="none">
  <g stroke="#F7B500" stroke-width="2" stroke-linecap="round" stroke-linejoin="round">
    <path d="M8 48h38"/>
    <path d="M13 48c-3.3 0-6 2.7-6 6s2.7 6 6 6h28c3.3 0 6-2.7 6-6s-2.7-6-6-6"/>
    <path d="M15 45V31h15l8 8v6"/>
    <path d="M20 31v-9h9l7 9"/>
    <path d="M30 22 40 9l7 4-10 15"/>
    <path d="m47 13 7 5-8 17"/>
    <path d="M46 35h9l2 7-6 3h-5"/>
    <circle cx="15" cy="54" r="2.5"/>
    <circle cx="39" cy="54" r="2.5"/>
  </g>
</svg>
