<svg xmlns="http://www.w3.org/2000/svg" viewBox="0 0 24 24" aria-hidden="true">
  <path d="M5.2 19.2 6.4 16A8.1 8.1 0 1 1 9 18.4Z" fill="none" stroke="#F5A800" stroke-width="1.8" stroke-linecap="round" stroke-linejoin="round"/>
  <path d="M9.5 8.2c.3-.4.7-.4 1-.1l.9 1.1c.2.3.2.6 0 .9l-.4.6c.6 1.2 1.5 2.1 2.7 2.7l.6-.4c.3-.2.7-.2.9 0l1.1.9c.3.3.3.7 0 1a2 2 0 0 1-1.9.7c-3-.5-5.6-3.1-6.1-6.1a2 2 0 0 1 .7-1.9Z" fill="none" stroke="#F5A800" stroke-width="1.55" stroke-linecap="round" stroke-linejoin="round"/>
</svg>
